<svg xmlns="http://www.w3.org/2000/svg" width="138" height="48" fill="none"><path fill="#F8F8F8" d="M20.991 32.76 3.051 20.385c-1.818-1.254-1.2-3.865 1.067-4.48l19.067-5.174a2.7 2.7 0 0 1 3.616 2.492l-1.13 17.549c-.134 2.083-2.862 3.242-4.68 1.988Z"/><path fill="#F8F8F8" d="m15.303 35.818-10.57-20.67a2.883 2.883 0 0 1 3.008-4.16l19.587 3.023a2.884 2.884 0 0 1 2.127 4.162l-9.023 17.646a2.883 2.883 0 0 1-5.13-.001Z"/><path fill="#F8F8F8" d="m26.752 13.917-9.764-1.507L5 15.665l4.785 9.361 11.205 7.732c.247.169.52.298.806.383l4.256-8.323.7-10.9Zm49.458 2.417a1.835 1.835 0 1 1 1.836 1.835 1.854 1.854 0 0 1-1.835-1.835Zm.307 2.732h3.059V29.26h-3.06V19.066Zm16.267 5.095a5.119 5.119 0 0 1-4.872 5.383 3.831 3.831 0 0 1-3.038-1.244v5.036h-3.058V19.064h3.058v.958a3.829 3.829 0 0 1 3.038-1.243 5.119 5.119 0 0 1 4.872 5.382Zm-3.058 0A2.427 2.427 0 1 0 87.3 26.65a2.327 2.327 0 0 0 2.426-2.488Zm12.496 2.039c0 2.345-2.039 3.344-4.241 3.344a4.463 4.463 0 0 1-4.383-2.427l2.65-1.508a1.675 1.675 0 0 0 1.733 1.2c.734 0 1.1-.225 1.1-.632 0-1.122-5.015-.53-5.015-4.058 0-2.222 1.875-3.343 4-3.343a4.46 4.46 0 0 1 3.975 2.18l-2.61 1.408a1.48 1.48 0 0 0-1.365-.9c-.53 0-.856.2-.856.57-.003 1.17 5.012.396 5.012 4.166Zm11.177-7.134V29.26h-3.058v-.96a3.488 3.488 0 0 1-2.916 1.244c-2.059 0-3.812-1.468-3.812-4.22v-6.258h3.058v5.811a1.675 1.675 0 0 0 .457 1.34 1.683 1.683 0 0 0 1.317.515c1.121 0 1.9-.652 1.9-2.1v-5.566h3.054Zm17.529 3.932v6.26h-3.058v-5.994c0-1.02-.49-1.672-1.468-1.672-1.02 0-1.59.714-1.59 1.917v5.749h-3.059v-5.994c0-1.02-.489-1.672-1.468-1.672-1.019 0-1.59.714-1.59 1.917v5.749h-3.058V19.064h3.063v.934a3.131 3.131 0 0 1 2.732-1.223 3.036 3.036 0 0 1 2.671 1.345 3.36 3.36 0 0 1 2.957-1.345c2.34.004 3.868 1.675 3.868 4.223ZM133.52 19a2.27 2.27 0 1 0 0-4.539 2.27 2.27 0 0 0 0 4.54Zm-99.061-4.624h3.059v14.883h-3.059V14.376Zm4.791 9.786a5.4 5.4 0 1 1 5.4 5.383 5.345 5.345 0 0 1-5.4-5.383Zm7.748 0a2.344 2.344 0 1 0-2.345 2.406 2.287 2.287 0 0 0 2.349-2.406h-.004Zm15.249-5.1v9.685c0 3.425-2.671 4.872-5.382 4.872a5.212 5.212 0 0 1-4.832-2.467l2.609-1.509a2.332 2.332 0 0 0 2.325 1.285 2.033 2.033 0 0 0 2.3-2.181v-.938a3.623 3.623 0 0 1-2.977 1.325 5.181 5.181 0 0 1 0-10.357 3.622 3.622 0 0 1 2.977 1.325v-1.04h2.98Zm-2.976 4.893a2.47 2.47 0 1 0-2.469 2.369 2.31 2.31 0 0 0 2.469-2.366v-.003Zm4.708.2a5.4 5.4 0 1 1 5.4 5.383 5.344 5.344 0 0 1-5.4-5.376v-.007Zm7.748 0a2.347 2.347 0 1 0-2.345 2.406 2.288 2.288 0 0 0 2.345-2.399v-.007Z"/></svg>