<svg display="block" role="presentation" viewBox="0 0 24 24" xmlns="http://www.w3.org/2000/svg" id="4130127678"><path d="M 0 2.25 C 0 1.007 1.007 0 2.25 0 C 3.493 0 4.5 1.007 4.5 2.25 C 4.5 3.493 3.493 4.5 2.25 4.5 C 1.007 4.5 0 3.493 0 2.25 Z" fill-opacity="var(--1m6trwb, 0)" fill="var(--21h8s6, rgb(0, 0, 0))" height="4.5px" id="CC84UXN95" transform="translate(9.75 5.25)" width="4.5px"></path><path d="M 0 2.25 C 0 1.007 1.007 0 2.25 0 C 3.493 0 4.5 1.007 4.5 2.25 C 4.5 3.493 3.493 4.5 2.25 4.5 C 1.007 4.5 0 3.493 0 2.25 Z" fill-opacity="var(--1m6trwb, 0)" fill="var(--21h8s6, rgb(0, 0, 0))" height="4.5px" id="Vs9qww0t4" transform="translate(1.5 14.25)" width="4.5px"></path><path d="M 0 2.25 C 0 1.007 1.007 0 2.25 0 C 3.493 0 4.5 1.007 4.5 2.25 C 4.5 3.493 3.493 4.5 2.25 4.5 C 1.007 4.5 0 3.493 0 2.25 Z" fill-opacity="var(--1m6trwb, 0)" fill="var(--21h8s6, rgb(0, 0, 0))" height="4.5px" id="xdfgBXktq" transform="translate(18 14.25)" width="4.5px"></path><path d="M 0 0 L 8.25 0" fill="transparent" height="1px" id="atWlHmWnE" stroke-dasharray="" stroke-linecap="round" stroke-linejoin="round" stroke-width="var(--pgex8v, 1.5)" stroke="var(--21h8s6, rgb(0, 0, 0))" transform="translate(1.5 7.5)" width="8.25px"></path><path d="M 0 0 L 8.25 0" fill="transparent" height="1px" id="WFHMer0X6" stroke-dasharray="" stroke-linecap="round" stroke-linejoin="round" stroke-width="var(--pgex8v, 1.5)" stroke="var(--21h8s6, rgb(0, 0, 0))" transform="translate(14.25 7.5)" width="8.25px"></path><path d="M 0 2.25 C 0 1.007 1.007 0 2.25 0 C 3.493 0 4.5 1.007 4.5 2.25 C 4.5 3.493 3.493 4.5 2.25 4.5 C 1.007 4.5 0 3.493 0 2.25 Z" fill="transparent" height="4.5px" id="N9AHkNYkd" stroke-dasharray="" stroke-linecap="round" stroke-linejoin="round" stroke-width="var(--pgex8v, 1.5)" stroke="var(--21h8s6, rgb(0, 0, 0))" transform="translate(9.75 5.25)" width="4.5px"></path><path d="M 0 2.25 C 0 1.007 1.007 0 2.25 0 C 3.493 0 4.5 1.007 4.5 2.25 C 4.5 3.493 3.493 4.5 2.25 4.5 C 1.007 4.5 0 3.493 0 2.25 Z" fill="transparent" height="4.5px" id="gnuJjd_L8" stroke-dasharray="" stroke-linecap="round" stroke-linejoin="round" stroke-width="var(--pgex8v, 1.5)" stroke="var(--21h8s6, rgb(0, 0, 0))" transform="translate(1.5 14.25)" width="4.5px"></path><path d="M 0 2.25 C 0 1.007 1.007 0 2.25 0 C 3.493 0 4.5 1.007 4.5 2.25 C 4.5 3.493 3.493 4.5 2.25 4.5 C 1.007 4.5 0 3.493 0 2.25 Z" fill="transparent" height="4.5px" id="ucqdLPmsc" stroke-dasharray="" stroke-linecap="round" stroke-linejoin="round" stroke-width="var(--pgex8v, 1.5)" stroke="var(--21h8s6, rgb(0, 0, 0))" transform="translate(18 14.25)" width="4.5px"></path><path d="M 0 0 C 3.031 0.853 5.313 3.354 5.886 6.45" fill="transparent" height="6.450000000000003px" id="FqQkpG2Fg" stroke-dasharray="" stroke-linecap="round" stroke-linejoin="round" stroke-width="var(--pgex8v, 1.5)" stroke="var(--21h8s6, rgb(0, 0, 0))" transform="translate(14.229 7.805)" width="5.8856250000000045px"></path><path d="M 0 6.45 C 0.573 3.354 2.855 0.853 5.886 0" fill="transparent" height="6.450000000000003px" id="Lyo6HEfKg" stroke-dasharray="" stroke-linecap="round" stroke-linejoin="round" stroke-width="var(--pgex8v, 1.5)" stroke="var(--21h8s6, rgb(0, 0, 0))" transform="translate(3.885 7.805)" width="5.885625000000001px"></path></svg>