<svg display="block" role="presentation" viewBox="0 0 24 24" xmlns="http://www.w3.org/2000/svg" id="2658193374"><path d="M 8.25 0 L 2.655 2.098 C 2.404 2.192 2.223 2.413 2.179 2.677 L 0 15.75 L 13.073 13.571 C 13.337 13.527 13.558 13.346 13.652 13.095 L 15.75 7.5 Z M 7.875 9.75 C 6.839 9.75 6 8.911 6 7.875 C 6 6.839 6.839 6 7.875 6 C 8.911 6 9.75 6.839 9.75 7.875 C 9.75 8.911 8.911 9.75 7.875 9.75 Z" fill-opacity="var(--1m6trwb, 0)" fill="var(--21h8s6, rgb(0, 0, 0))" height="15.75px" id="Tq2BEokb8" transform="translate(3.75 4.5)" width="15.75px"></path><path d="M 0 6.549 L 6.548 0" fill="transparent" height="6.549374999999998px" id="gytXusS0U" stroke-dasharray="" stroke-linecap="round" stroke-linejoin="round" stroke-width="var(--pgex8v, 1.5)" stroke="var(--21h8s6, rgb(0, 0, 0))" transform="translate(3.751 13.701)" width="6.548437499999999px"></path><path d="M 0 1.875 C 0 0.839 0.839 0 1.875 0 C 2.911 0 3.75 0.839 3.75 1.875 C 3.75 2.911 2.911 3.75 1.875 3.75 C 0.839 3.75 0 2.911 0 1.875 Z" fill="transparent" height="3.75px" id="vFnUL41DN" stroke-dasharray="" stroke-linecap="round" stroke-linejoin="round" stroke-width="var(--pgex8v, 1.5)" stroke="var(--21h8s6, rgb(0, 0, 0))" transform="translate(9.75 10.5)" width="3.75px"></path><path d="M 0 15.75 L 13.073 13.571 C 13.337 13.527 13.558 13.346 13.652 13.095 L 15.75 7.5 L 8.25 0 L 2.655 2.098 C 2.404 2.192 2.223 2.413 2.179 2.677 Z" fill="transparent" height="15.75px" id="TFuDbLmzI" stroke-dasharray="" stroke-linecap="round" stroke-linejoin="round" stroke-width="var(--pgex8v, 1.5)" stroke="var(--21h8s6, rgb(0, 0, 0))" transform="translate(3.75 4.5)" width="15.75px"></path><path d="M 7.5 10.5 L 10.281 7.719 C 10.573 7.427 10.573 6.952 10.281 6.659 L 3.844 0.219 C 3.551 -0.073 3.076 -0.073 2.783 0.219 L 0 3" fill="transparent" height="10.500121135182846px" id="GGOMLSwJq" stroke-dasharray="" stroke-linecap="round" stroke-linejoin="round" stroke-width="var(--pgex8v, 1.5)" stroke="var(--21h8s6, rgb(0, 0, 0))" transform="translate(12 1.5)" width="10.500121135182837px"></path></svg>