<svg xmlns="http://www.w3.org/2000/svg" width="68" height="69" fill="none"><g fill="#333" opacity=".3"><circle cx="2.5" cy="2.5" r="2.5"/><circle cx="11.5" cy="2.5" r="2.5"/><circle cx="20.5" cy="2.5" r="2.5"/><circle cx="29.5" cy="2.5" r="2.5"/><circle cx="38.5" cy="2.5" r="2.5"/><circle cx="2.5" cy="10.5" r="2.5"/><circle cx="11.5" cy="10.5" r="2.5"/><circle cx="20.5" cy="10.5" r="2.5"/><circle cx="29.5" cy="10.5" r="2.5"/><circle cx="38.5" cy="10.5" r="2.5"/><circle cx="47.5" cy="10.5" r="2.5"/><circle cx="2.5" cy="18.5" r="2.5"/><circle cx="11.5" cy="18.5" r="2.5"/><circle cx="20.5" cy="18.5" r="2.5"/><circle cx="29.5" cy="18.5" r="2.5"/><circle cx="38.5" cy="18.5" r="2.5"/><circle cx="47.5" cy="18.5" r="2.5"/><circle cx="56.5" cy="18.5" r="2.5"/><circle cx="2.5" cy="26.5" r="2.5"/><circle cx="11.5" cy="26.5" r="2.5"/><circle cx="20.5" cy="26.5" r="2.5"/><circle cx="29.5" cy="26.5" r="2.5"/><circle cx="38.5" cy="26.5" r="2.5"/><circle cx="47.5" cy="26.5" r="2.5"/><circle cx="56.5" cy="26.5" r="2.5"/><circle cx="65.5" cy="26.5" r="2.5"/><circle cx="2.5" cy="34.5" r="2.5"/><circle cx="11.5" cy="34.5" r="2.5"/><circle cx="20.5" cy="34.5" r="2.5"/><circle cx="29.5" cy="34.5" r="2.5"/><circle cx="38.5" cy="34.5" r="2.5"/><circle cx="47.5" cy="34.5" r="2.5"/><circle cx="56.5" cy="34.5" r="2.5"/><circle cx="65.5" cy="34.5" r="2.5"/><circle cx="2.5" cy="42.5" r="2.5"/><circle cx="11.5" cy="42.5" r="2.5"/><circle cx="20.5" cy="42.5" r="2.5"/><circle cx="29.5" cy="42.5" r="2.5"/><circle cx="38.5" cy="42.5" r="2.5"/><circle cx="47.5" cy="42.5" r="2.5"/><circle cx="56.5" cy="42.5" r="2.5"/><circle cx="65.5" cy="42.5" r="2.5"/><circle cx="2.5" cy="50.5" r="2.5"/><circle cx="11.5" cy="50.5" r="2.5"/><circle cx="20.5" cy="50.5" r="2.5"/><circle cx="29.5" cy="50.5" r="2.5"/><circle cx="38.5" cy="50.5" r="2.5"/><circle cx="47.5" cy="50.5" r="2.5"/><circle cx="56.5" cy="50.5" r="2.5"/><circle cx="65.5" cy="50.5" r="2.5"/><circle cx="2.5" cy="58.5" r="2.5"/><circle cx="11.5" cy="58.5" r="2.5"/><circle cx="20.5" cy="58.5" r="2.5"/><circle cx="29.5" cy="58.5" r="2.5"/><circle cx="38.5" cy="58.5" r="2.5"/><circle cx="47.5" cy="58.5" r="2.5"/><circle cx="56.5" cy="58.5" r="2.5"/><circle cx="65.5" cy="58.5" r="2.5"/><circle cx="2.5" cy="66.5" r="2.5"/><circle cx="11.5" cy="66.5" r="2.5"/><circle cx="20.5" cy="66.5" r="2.5"/><circle cx="29.5" cy="66.5" r="2.5"/><circle cx="38.5" cy="66.5" r="2.5"/><circle cx="47.5" cy="66.5" r="2.5"/><circle cx="56.5" cy="66.5" r="2.5"/><circle cx="65.5" cy="66.5" r="2.5"/></g></svg>